<?xml version="1.0" standalone="no"?>
<!DOCTYPE svg PUBLIC "-//W3C//DTD SVG 20010904//EN"
 "http://www.w3.org/TR/2001/REC-SVG-20010904/DTD/svg10.dtd">
<svg version="1.0" xmlns="http://www.w3.org/2000/svg"
 width="236.000000pt" height="236.000000pt" viewBox="0 0 236.000000 236.000000"
 preserveAspectRatio="xMidYMid meet">

<g transform="translate(0.000000,236.000000) scale(0.100000,-0.100000)"
fill="#000000" stroke="none">
<path d="M1395 2104 c-117 -25 -173 -52 -227 -112 -45 -50 -91 -170 -111 -287
-14 -84 -14 -94 2 -142 18 -53 12 -72 -10 -32 -7 14 -14 18 -20 12 -13 -13 24
-201 50 -251 28 -55 46 -68 76 -54 19 9 25 19 25 42 0 20 5 30 15 30 10 0 15
10 15 28 1 21 3 24 10 11 11 -18 -20 -127 -40 -139 -10 -6 -10 -21 0 -79 11
-56 11 -79 1 -112 -11 -35 -15 -40 -35 -35 -16 4 -51 -14 -135 -69 -109 -72
-114 -74 -137 -58 -49 32 -65 152 -44 333 5 47 11 149 12 226 3 151 -5 181
-44 168 -13 -4 -25 2 -39 21 -21 26 -54 27 -72 1 -12 -18 -35 -101 -67 -246
-17 -74 -35 -139 -39 -143 -11 -11 -19 50 -27 218 -4 84 -11 143 -18 147 -6 4
-23 8 -38 8 -38 0 -58 -33 -58 -98 0 -29 -4 -51 -9 -48 -10 6 -45 -30 -56 -59
-4 -11 -11 -83 -15 -160 -4 -77 -15 -181 -25 -232 -17 -83 -18 -101 -6 -185 7
-51 15 -110 18 -130 4 -30 -2 -48 -31 -96 -20 -33 -43 -65 -51 -72 -12 -10
-15 -36 -15 -116 0 -63 4 -104 10 -104 6 0 10 13 10 28 0 26 49 134 84 184 12
17 16 19 16 6 0 -9 21 -36 46 -60 40 -38 45 -47 40 -76 -3 -19 -11 -41 -18
-49 -7 -9 -13 -28 -14 -43 l-1 -27 56 12 c51 10 56 13 56 38 0 36 -17 38 -33
4 -15 -31 -60 -40 -47 -10 34 80 53 163 37 163 -5 0 -13 -7 -16 -17 -6 -14 -8
-14 -21 3 -28 37 -19 47 35 42 41 -4 48 -3 39 8 -6 8 -26 14 -43 14 -17 0 -38
5 -46 10 -11 7 -4 10 27 10 23 0 48 6 55 13 18 18 88 32 88 17 0 -5 9 -19 20
-30 19 -19 20 -19 67 1 26 12 57 30 68 41 l20 20 -30 -6 c-84 -17 -92 -18
-106 -4 -22 23 -94 31 -109 13 -19 -23 -68 -18 -94 8 -13 13 -33 49 -45 81
-27 73 -46 242 -32 294 6 20 13 109 16 197 7 203 13 245 31 252 31 12 39 -16
44 -165 3 -93 9 -145 15 -142 12 6 9 154 -6 260 -5 43 -6 100 -2 135 7 55 10
60 32 60 33 0 37 -18 45 -208 7 -163 11 -190 30 -184 17 5 32 43 60 142 13 50
31 115 39 145 9 30 19 73 24 95 9 47 35 57 57 23 13 -19 13 -35 5 -93 -16
-104 -50 -244 -71 -294 -20 -47 -17 -62 10 -45 18 12 42 110 70 294 16 102 20
115 37 115 18 0 20 -8 23 -65 2 -36 -4 -150 -14 -254 -19 -220 -15 -336 14
-375 28 -38 67 -49 100 -29 15 10 45 27 67 39 22 12 59 37 82 56 23 19 50 33
60 31 40 -7 16 -45 -96 -151 -90 -86 -128 -115 -185 -141 -116 -53 -120 -84
-10 -70 47 5 57 3 120 -33 37 -21 102 -71 143 -110 l76 -72 -54 6 c-51 6 -53
5 -42 -14 10 -20 42 -50 91 -86 25 -18 25 -18 -29 -12 -38 4 -59 12 -68 25
-17 24 -111 71 -119 59 -8 -14 -24 -10 -24 6 0 8 -15 21 -32 29 -35 15 -105
78 -125 111 -10 19 -11 19 -18 2 -11 -26 20 -63 93 -111 33 -23 61 -47 61 -55
1 -8 12 -34 27 -58 l25 -43 207 2 207 3 -3 33 c-4 44 16 50 70 19 24 -14 49
-23 56 -20 36 14 -10 74 -98 128 -25 16 -64 43 -88 61 -23 17 -97 56 -163 85
-67 29 -115 55 -108 57 8 3 30 20 50 39 l36 34 74 -17 c41 -9 79 -20 84 -26
11 -10 -23 -5 -83 14 -36 11 -48 6 -37 -12 13 -21 75 -41 157 -50 69 -8 89
-15 134 -46 56 -39 73 -40 55 -6 -18 34 -71 72 -118 83 -41 11 -64 31 -50 46
3 3 52 -9 108 -26 l103 -31 54 32 c76 45 158 127 166 165 l7 31 47 -13 c26 -7
61 -18 77 -25 82 -33 189 -70 193 -65 12 12 -45 55 -75 55 -17 0 -51 8 -75 18
-24 10 -73 27 -110 37 -63 17 -68 20 -83 57 -17 43 -35 43 -35 -1 0 -15 -8
-35 -17 -43 -22 -19 -89 -53 -123 -62 l-25 -7 24 20 c13 12 32 21 42 21 21 0
26 19 7 24 -7 2 -49 9 -92 16 -44 6 -84 14 -90 16 -21 8 -56 71 -56 100 l1 29
23 -29 c24 -28 24 -29 115 -24 128 6 150 32 39 45 -29 3 -64 11 -78 18 -23 12
-20 13 43 20 38 4 88 5 113 2 24 -2 44 -1 44 3 0 4 -48 10 -107 14 -137 9
-209 33 -157 53 8 3 13 12 10 19 -3 8 1 32 9 54 21 58 -3 53 -41 -10 l-31 -51
-5 46 c-3 27 -16 59 -31 78 -14 19 -39 57 -56 85 -30 51 -30 52 -10 62 28 15
112 40 117 35 3 -2 13 0 24 6 14 7 23 7 34 -1 7 -7 25 -9 38 -6 18 4 29 1 40
-15 l15 -22 7 27 c9 38 -13 56 -114 96 -63 25 -86 39 -93 57 -11 29 -12 73 -1
73 4 0 61 -14 127 -30 141 -35 227 -38 313 -11 43 13 64 15 71 8 6 -6 11 -51
11 -103 0 -51 5 -96 10 -99 10 -6 14 6 10 38 -1 10 6 38 16 62 12 34 15 66 12
137 -4 86 -7 99 -48 177 -54 103 -143 196 -231 240 -55 27 -71 31 -143 30 -45
-1 -90 -3 -101 -5z"/>
<path d="M1821 1546 c-6 -8 -32 -19 -58 -25 -56 -15 -123 -48 -123 -62 0 -17
32 -23 52 -10 12 8 24 9 31 3 7 -5 33 -13 60 -16 40 -6 47 -5 47 9 0 9 -9 19
-20 22 -25 7 -25 9 5 45 14 16 25 34 25 39 0 13 -6 11 -19 -5z"/>
<path d="M1506 1353 c-35 -56 -41 -104 -16 -136 11 -14 20 -30 20 -36 0 -6 9
-15 20 -21 16 -9 26 -7 47 9 14 12 31 21 37 21 7 0 21 7 32 15 18 13 16 14
-16 9 -27 -4 -42 0 -63 16 -27 21 -28 26 -23 86 2 35 1 66 -4 69 -5 3 -20 -11
-34 -32z"/>
<path d="M1981 433 c0 -27 4 -56 8 -66 6 -17 8 -17 20 -3 9 11 22 14 39 9 l26
-6 -23 31 c-12 18 -18 32 -14 32 14 0 40 -23 46 -40 4 -10 6 -7 6 7 1 24 -41
59 -58 48 -6 -3 -16 3 -23 15 -20 32 -28 24 -27 -27z"/>
<path d="M1944 415 c-6 -25 9 -55 29 -55 5 0 2 9 -8 20 -14 16 -16 23 -7 32
15 15 15 28 2 28 -5 0 -12 -11 -16 -25z"/>
<path d="M2025 350 c-3 -5 1 -10 9 -10 8 0 18 5 21 10 3 6 -1 10 -9 10 -8 0
-18 -4 -21 -10z"/>
</g>
</svg>
